<mxfile host="app.diagrams.net" modified="2023-08-19T03:44:19.221Z" agent="Mozilla/5.0 (Windows NT 10.0; Win64; x64) AppleWebKit/537.36 (KHTML, like Gecko) Chrome/115.0.0.0 Safari/537.36" etag="8rNCs81eui9RAqT8GIK7" version="21.6.8" type="github">
  <diagram id="prtHgNgQTEPvFCAcTncT" name="Page-1">
    <mxGraphModel dx="794" dy="456" grid="1" gridSize="10" guides="1" tooltips="1" connect="1" arrows="1" fold="1" page="1" pageScale="1" pageWidth="827" pageHeight="1169" math="0" shadow="0">
      <root>
        <mxCell id="0" />
        <mxCell id="1" parent="0" />
        <mxCell id="97RwfN_P10SwIZRyJNP6-1" value="&lt;b&gt;CEO&lt;/b&gt;&lt;br&gt;&lt;i&gt;Spencer Krock&lt;/i&gt;" style="ellipse;whiteSpace=wrap;html=1;fillColor=#FFFF00;strokeColor=#000000;" vertex="1" parent="1">
          <mxGeometry x="340" y="80" width="120" height="80" as="geometry" />
        </mxCell>
        <mxCell id="97RwfN_P10SwIZRyJNP6-2" value="&lt;b&gt;Project Manager&lt;br&gt;&lt;/b&gt;&lt;i&gt;Chelsea Inthavong&lt;/i&gt;" style="ellipse;whiteSpace=wrap;html=1;fillColor=#FFFF00;" vertex="1" parent="1">
          <mxGeometry x="340" y="200" width="120" height="80" as="geometry" />
        </mxCell>
        <mxCell id="97RwfN_P10SwIZRyJNP6-3" value="&lt;b&gt;Chief/Systems Engineer&lt;br&gt;&lt;/b&gt;Dedrick Bobadilla&amp;nbsp;" style="ellipse;whiteSpace=wrap;html=1;fillColor=#FFFF00;" vertex="1" parent="1">
          <mxGeometry x="520" y="200" width="120" height="80" as="geometry" />
        </mxCell>
        <mxCell id="97RwfN_P10SwIZRyJNP6-4" value="&lt;b&gt;Operations Engineer&lt;/b&gt;&lt;br&gt;&lt;i&gt;Thomas Presiche&lt;/i&gt;" style="ellipse;whiteSpace=wrap;html=1;fillColor=#FFFF00;" vertex="1" parent="1">
          <mxGeometry x="160" y="200" width="120" height="80" as="geometry" />
        </mxCell>
        <mxCell id="97RwfN_P10SwIZRyJNP6-5" value="&lt;b&gt;Test Engineer&lt;br&gt;&lt;/b&gt;&lt;i&gt;Jack Roemer&lt;/i&gt;" style="ellipse;whiteSpace=wrap;html=1;gradientColor=none;fillColor=#FFFF00;" vertex="1" parent="1">
          <mxGeometry x="80" y="320" width="120" height="80" as="geometry" />
        </mxCell>
        <mxCell id="97RwfN_P10SwIZRyJNP6-6" value="&lt;b&gt;Assembly Engineer&lt;br&gt;&lt;/b&gt;&lt;i&gt;Ashley Petka&lt;/i&gt;" style="ellipse;whiteSpace=wrap;html=1;fillColor=#FFFF00;" vertex="1" parent="1">
          <mxGeometry x="240" y="320" width="120" height="80" as="geometry" />
        </mxCell>
        <mxCell id="97RwfN_P10SwIZRyJNP6-7" value="&lt;b&gt;Software Engineer&lt;br&gt;&lt;/b&gt;&lt;i&gt;Jaelyn Tran&lt;br&gt;Chris Tio&lt;/i&gt;" style="ellipse;whiteSpace=wrap;html=1;fillColor=#FFFF00;" vertex="1" parent="1">
          <mxGeometry x="440" y="320" width="120" height="80" as="geometry" />
        </mxCell>
        <mxCell id="97RwfN_P10SwIZRyJNP6-8" value="&lt;b&gt;Design/Systems Engineer&lt;br&gt;&lt;/b&gt;&lt;i&gt;Jasmine Vuong&lt;/i&gt;" style="ellipse;whiteSpace=wrap;html=1;fillColor=#FFFF00;" vertex="1" parent="1">
          <mxGeometry x="600" y="320" width="120" height="80" as="geometry" />
        </mxCell>
        <mxCell id="97RwfN_P10SwIZRyJNP6-10" value="&lt;b&gt;Financial Officer&lt;br&gt;&lt;/b&gt;&lt;i&gt;Roel Torralba&lt;/i&gt;" style="ellipse;whiteSpace=wrap;html=1;fillColor=#FFFF00;" vertex="1" parent="1">
          <mxGeometry x="260" y="440" width="120" height="80" as="geometry" />
        </mxCell>
        <mxCell id="97RwfN_P10SwIZRyJNP6-11" value="&lt;b&gt;Marketing and Communications Manager&lt;br&gt;&lt;/b&gt;&lt;i&gt;Pete Sujittosakul&lt;/i&gt;" style="ellipse;whiteSpace=wrap;html=1;fillColor=#FFFF00;" vertex="1" parent="1">
          <mxGeometry x="420" y="440" width="120" height="80" as="geometry" />
        </mxCell>
      </root>
    </mxGraphModel>
  </diagram>
</mxfile>
